<svg xmlns="http://www.w3.org/2000/svg" xmlns:xlink="http://www.w3.org/1999/xlink" width="113" height="113" viewBox="0 0 113 113">
  <defs>
    <filter id="Trazado_982547" x="0" y="0" width="113" height="113" filterUnits="userSpaceOnUse">
      <feOffset dy="3" input="SourceAlpha"/>
      <feGaussianBlur stdDeviation="3" result="blur"/>
      <feFlood flood-opacity="0.161"/>
      <feComposite operator="in" in2="blur"/>
      <feComposite in="SourceGraphic"/>
    </filter>
  </defs>
  <g id="Grupo_1225490" data-name="Grupo 1225490" transform="translate(-271 -1295.342)">
    <g id="Grupo_1225173" data-name="Grupo 1225173" transform="translate(0 -3445.654)">
      <g id="Grupo_1224643" data-name="Grupo 1224643" transform="translate(0 1927)">
        <g id="Grupo_1224291" data-name="Grupo 1224291" transform="translate(0 859.245)">
          <g id="Grupo_1224091" data-name="Grupo 1224091" transform="translate(-84.49 -2620.317)">
            <g id="Grupo_1223183" data-name="Grupo 1223183" transform="translate(364.49 4581.069)">
              <g id="Grupo_1211217" data-name="Grupo 1211217" transform="translate(0)">
                <g id="Grupo_1210736" data-name="Grupo 1210736">
                  <g id="Grupo_1210537" data-name="Grupo 1210537">
                    <g id="Grupo_1164202" data-name="Grupo 1164202">
                      <g id="Grupo_1158168" data-name="Grupo 1158168">
                        <g id="Grupo_1152576" data-name="Grupo 1152576">
                          <g id="Grupo_1148633" data-name="Grupo 1148633">
                            <g id="Grupo_1148525" data-name="Grupo 1148525">
                              <g transform="matrix(1, 0, 0, 1, -9, -6)" filter="url(#Trazado_982547)">
                                <g id="Trazado_982547-2" data-name="Trazado 982547" transform="translate(9 6)" fill="#fdfbec">
                                  <path d="M 47.49999618530273 93.5 C 41.28936767578125 93.5 35.26533126831055 92.28396606445312 29.59518241882324 89.88570404052734 C 24.11771583557129 87.56893157958984 19.19812965393066 84.251953125 14.97308921813965 80.02690124511719 C 10.74803638458252 75.80186462402344 7.431062698364258 70.88227844238281 5.114289283752441 65.40480804443359 C 2.716022968292236 59.73466110229492 1.499996185302734 53.71062469482422 1.499996185302734 47.49999618530273 C 1.499996185302734 41.28936767578125 2.716022968292236 35.26533126831055 5.114289283752441 29.59518241882324 C 7.431062698364258 24.11771583557129 10.74803638458252 19.19812965393066 14.97308921813965 14.97308921813965 C 19.19812965393066 10.74803638458252 24.11771583557129 7.431062698364258 29.59518241882324 5.114289283752441 C 35.26533126831055 2.716022968292236 41.28936767578125 1.499996185302734 47.49999618530273 1.499996185302734 C 53.71062469482422 1.499996185302734 59.73466110229492 2.716022968292236 65.40480804443359 5.114289283752441 C 70.88227844238281 7.431062698364258 75.80186462402344 10.74803638458252 80.02690124511719 14.97308921813965 C 84.251953125 19.19812965393066 87.56893157958984 24.11771583557129 89.88570404052734 29.59518241882324 C 92.28396606445312 35.26533126831055 93.5 41.28936767578125 93.5 47.49999618530273 C 93.5 53.71062469482422 92.28396606445312 59.73466110229492 89.88570404052734 65.40480804443359 C 87.56893157958984 70.88227844238281 84.251953125 75.80186462402344 80.02690124511719 80.02690124511719 C 75.80186462402344 84.251953125 70.88227844238281 87.56893157958984 65.40480804443359 89.88570404052734 C 59.73466110229492 92.28396606445312 53.71062469482422 93.5 47.49999618530273 93.5 Z" stroke="none"/>
                                  <path d="M 47.49999618530273 2.999992370605469 C 41.4912109375 2.999992370605469 35.66376495361328 4.1761474609375 30.17950439453125 6.495796203613281 C 24.88084411621094 8.736953735351562 20.12152099609375 11.94598388671875 16.03375244140625 16.03375244140625 C 11.94598388671875 20.12152099609375 8.736953735351562 24.88084411621094 6.495796203613281 30.17950439453125 C 4.1761474609375 35.66376495361328 2.999992370605469 41.4912109375 2.999992370605469 47.49999618530273 C 2.999992370605469 53.50878143310547 4.1761474609375 59.33622741699219 6.495796203613281 64.82048797607422 C 8.736953735351562 70.11914825439453 11.94598388671875 74.87847137451172 16.03375244140625 78.96623992919922 C 20.12152099609375 83.05400848388672 24.88084411621094 86.26304626464844 30.17950439453125 88.50419616699219 C 35.66376495361328 90.82384490966797 41.4912109375 92 47.49999618530273 92 C 53.50878143310547 92 59.33622741699219 90.82384490966797 64.82048797607422 88.50419616699219 C 70.11914825439453 86.26304626464844 74.87847137451172 83.05400848388672 78.96623992919922 78.96623992919922 C 83.05400848388672 74.87847137451172 86.26304626464844 70.11914825439453 88.50419616699219 64.82048797607422 C 90.82384490966797 59.33622741699219 92 53.50878143310547 92 47.49999618530273 C 92 41.4912109375 90.82384490966797 35.66376495361328 88.50419616699219 30.17950439453125 C 86.26304626464844 24.88084411621094 83.05400848388672 20.12152099609375 78.96623992919922 16.03375244140625 C 74.87847137451172 11.94598388671875 70.11914825439453 8.736953735351562 64.82048797607422 6.495796203613281 C 59.33622741699219 4.1761474609375 53.50878143310547 2.999992370605469 47.49999618530273 2.999992370605469 M 47.49999618530273 -7.62939453125e-06 C 73.7335205078125 -7.62939453125e-06 95 21.26647186279297 95 47.49999618530273 C 95 73.7335205078125 73.7335205078125 95 47.49999618530273 95 C 21.26647186279297 95 -7.62939453125e-06 73.7335205078125 -7.62939453125e-06 47.49999618530273 C -7.62939453125e-06 21.26647186279297 21.26647186279297 -7.62939453125e-06 47.49999618530273 -7.62939453125e-06 Z" stroke="none" fill="#83793c"/>
                                </g>
                              </g>
                            </g>
                          </g>
                        </g>
                      </g>
                    </g>
                  </g>
                </g>
              </g>
            </g>
          </g>
        </g>
      </g>
    </g>
    <g id="parsing_17359338" transform="translate(288.036 1317.658)">
      <g id="Grupo_1225489" data-name="Grupo 1225489" transform="translate(9.619 1.938)">
        <g id="Grupo_1225486" data-name="Grupo 1225486" transform="translate(0 14.324)">
          <path id="Trazado_1052725" data-name="Trazado 1052725" d="M145.37,435.519l-17.818.228-3.958,6.793a.416.416,0,0,0,.36.626H149.1a.416.416,0,0,0,.36-.626Z" transform="translate(-110.883 -399.342)" fill="#003748" fill-rule="evenodd"/>
          <path id="Trazado_1052726" data-name="Trazado 1052726" d="M292.608,435.518l-2.061.026,4.076,6.995a.416.416,0,0,1-.36.626h2.076a.416.416,0,0,0,.36-.626Z" transform="translate(-258.121 -399.341)" fill="#00242f" fill-rule="evenodd"/>
          <path id="Trazado_1052727" data-name="Trazado 1052727" d="M65.291,129.971a2.686,2.686,0,0,1,2.678,2.678v31.194a2.686,2.686,0,0,1-2.678,2.678H19.357a2.686,2.686,0,0,1-2.678-2.678V132.649a2.685,2.685,0,0,1,2.678-2.678Z" transform="translate(-16.679 -129.971)" fill="#e6f8ff" fill-rule="evenodd"/>
          <path id="Trazado_1052728" data-name="Trazado 1052728" d="M404.062,129.971a2.686,2.686,0,0,1,2.678,2.678v31.194a2.686,2.686,0,0,1-2.678,2.678h-3.115a2.686,2.686,0,0,0,2.678-2.678V132.649a2.686,2.686,0,0,0-2.678-2.678Z" transform="translate(-355.45 -129.971)" fill="#d0f1ff" fill-rule="evenodd"/>
          <path id="Trazado_1052729" data-name="Trazado 1052729" d="M67.969,409.569H16.679v1.806a2.685,2.685,0,0,0,2.678,2.678H65.291a2.685,2.685,0,0,0,2.678-2.678Z" transform="translate(-16.679 -376.465)" fill="#004960" fill-rule="evenodd"/>
          <path id="Trazado_1052730" data-name="Trazado 1052730" d="M406.739,409.569h-3.115v1.806a2.685,2.685,0,0,1-2.678,2.678h3.115a2.685,2.685,0,0,0,2.678-2.678Z" transform="translate(-355.45 -376.465)" fill="#003748" fill-rule="evenodd"/>
        </g>
        <g id="Grupo_1225487" data-name="Grupo 1225487" transform="translate(10.468)">
          <path id="Trazado_1052731" data-name="Trazado 1052731" d="M106.583,50.807h27.369a1.5,1.5,0,0,0,1.492-1.492V17.343a1.441,1.441,0,0,0-.437-1.055l-6.863-6.863a1.441,1.441,0,0,0-1.055-.437H106.583a1.5,1.5,0,0,0-1.492,1.492V49.314a1.5,1.5,0,0,0,1.492,1.492Z" transform="translate(-105.091 -8.988)" fill="#eff4f7" fill-rule="evenodd"/>
          <path id="Trazado_1052732" data-name="Trazado 1052732" d="M106.583,54.043h27.369a1.5,1.5,0,0,0,1.492-1.492V20.58a1.441,1.441,0,0,0-.437-1.055l-6.863-6.863,0,0,5,5a1.441,1.441,0,0,1,.437,1.055V50.682a1.5,1.5,0,0,1-1.492,1.492H105.091v.376a1.5,1.5,0,0,0,1.492,1.492Z" transform="translate(-105.091 -12.224)" fill="#dee8ee" fill-rule="evenodd"/>
          <path id="Trazado_1052733" data-name="Trazado 1052733" d="M296.548,10.389l6.863,6.863a1.5,1.5,0,0,1,.308.437h-6.26a1.35,1.35,0,0,1-1.347-1.347v-6.26A1.494,1.494,0,0,1,296.548,10.389Z" transform="translate(-273.494 -9.952)" fill="#dee8ee" fill-rule="evenodd"/>
          <path id="Trazado_1052734" data-name="Trazado 1052734" d="M299.776,12.654l6.863,6.863a1.494,1.494,0,0,1,.308.437h-1.739V18.7a1.441,1.441,0,0,0-.437-1.055l-5-5Z" transform="translate(-276.723 -12.217)" fill="#cedde5" fill-rule="evenodd"/>
        </g>
        <g id="Grupo_1225488" data-name="Grupo 1225488" transform="translate(22.586 24.412)">
          <path id="Trazado_1052735" data-name="Trazado 1052735" d="M380.853,390.919l1.828-1.954-3.695-3.695-1.959,1.823Z" transform="translate(-356.948 -365.131)" fill="#b4d2d7" fill-rule="evenodd"/>
          <path id="Trazado_1052736" data-name="Trazado 1052736" d="M380.853,398.514l1.828-1.954-.02-.02-1.023,1.093-3.748-3.748-.863.8Z" transform="translate(-356.948 -372.726)" fill="#9bb9c3" fill-rule="evenodd"/>
          <path id="Trazado_1052737" data-name="Trazado 1052737" d="M400.223,404.851l-3.039,3.039a.217.217,0,0,0,0,.305l7.713,7.712a2.365,2.365,0,1,0,3.345-3.345l-7.713-7.712A.216.216,0,0,0,400.223,404.851Z" transform="translate(-374.663 -382.338)" fill="#8d9ca8" fill-rule="evenodd"/>
          <path id="Trazado_1052738" data-name="Trazado 1052738" d="M397.756,426.153l-.573.573a.217.217,0,0,0,0,.305l7.713,7.712a2.364,2.364,0,0,0,3.607-.312,2.374,2.374,0,0,1-3.033-.262l-7.713-7.713A.216.216,0,0,1,397.756,426.153Z" transform="translate(-374.663 -401.173)" fill="#7a8c98" fill-rule="evenodd"/>
          <path id="Trazado_1052739" data-name="Trazado 1052739" d="M397.183,407.891a.217.217,0,0,0,0,.305l2,2,3.345-3.345-2-2a.217.217,0,0,0-.305,0Z" transform="translate(-374.663 -382.338)" fill="#7a8c98" fill-rule="evenodd"/>
          <path id="Trazado_1052740" data-name="Trazado 1052740" d="M397.183,426.726a.217.217,0,0,0,0,.305l2,2,.574-.574-2-2a.216.216,0,0,1,0-.3Z" transform="translate(-374.663 -401.173)" fill="#596c76" fill-rule="evenodd"/>
          <circle id="Elipse_13132" data-name="Elipse 13132" cx="11.2" cy="11.2" r="11.2" transform="translate(0 21.437) rotate(-73.142)" fill="#64b5f6"/>
          <path id="Trazado_1052741" data-name="Trazado 1052741" d="M272.081,256.923a11.2,11.2,0,1,1-14.7,16.8,11.2,11.2,0,0,0,14.7-16.8Z" transform="translate(-251.468 -251.98)" fill="#42a5f5" fill-rule="evenodd"/>
          <circle id="Elipse_13133" data-name="Elipse 13133" cx="8.066" cy="8.066" r="8.066" transform="translate(5.896 5.888)" fill="#e6f8ff"/>
          <path id="Trazado_1052742" data-name="Trazado 1052742" d="M265.3,264.9a8.049,8.049,0,0,1,6.2,2.9,8.066,8.066,0,0,0-11.36,11.361A8.066,8.066,0,0,1,265.3,264.9Z" transform="translate(-251.342 -259.017)" fill="#cbf0ff" fill-rule="evenodd"/>
          <path id="Trazado_1052743" data-name="Trazado 1052743" d="M288.5,298.992a1.52,1.52,0,0,1,2.156,2.144l-5.078,5.126a1.52,1.52,0,0,1-2.138.018l-2.513-2.449a1.521,1.521,0,0,1,2.12-2.18l1.434,1.4Z" transform="translate(-271.821 -288.672)" fill="#64b5f6" fill-rule="evenodd"/>
          <path id="Trazado_1052744" data-name="Trazado 1052744" d="M307.512,300.084a1.521,1.521,0,0,1,.355,2.41l-5.078,5.126a1.52,1.52,0,0,1-2.138.018l-.23-.224a1.521,1.521,0,0,0,1.869-.227l5.078-5.126a1.521,1.521,0,0,0,.144-1.976Zm-7.523,2.716,1.2,1.173.027-.027-.961-.937a1.522,1.522,0,0,0-.269-.209Z" transform="translate(-289.032 -290.03)" fill="#42a5f5" fill-rule="evenodd"/>
        </g>
      </g>
      <path id="Trazado_1052745" data-name="Trazado 1052745" d="M45.107,43.089l5.077-5.124a.579.579,0,0,0,.168-.408.575.575,0,0,0-.573-.572h0a.574.574,0,0,0-.4.168L45.355,41.21a.947.947,0,0,1-1.333.012l-1.434-1.4a.574.574,0,0,0-.4-.161H42.18a.574.574,0,0,0-.392.984L44.3,43.1a.575.575,0,0,0,.806-.008Zm1.345,1.334a2.476,2.476,0,0,1-3.472.031L40.467,42a2.468,2.468,0,1,1,3.442-3.538l.762.742,3.358-3.389a0,0,0,0,1,0,0,2.455,2.455,0,0,1,1.743-.728h.007A2.468,2.468,0,0,1,51.53,39.3Zm-.469,3.007a7.308,7.308,0,1,1,7.309-7.309A7.316,7.316,0,0,1,45.983,47.431Zm0,1.894a9.2,9.2,0,1,1,9.2-9.2A9.213,9.213,0,0,1,45.983,49.325Zm18.947,7.738-5.042-5.04-2,2,5.043,5.041a1.418,1.418,0,0,0,2-2.006ZM54.081,52.9l-.219-.217a1.152,1.152,0,0,1-.08-1.535l-.979-.98a12.119,12.119,0,0,1-13.419.143H10.565v.859A1.732,1.732,0,0,0,12.3,52.9H54.081Zm-9.7,1.894H26.143l-2.53,4.342h23.3ZM10.565,18.941V48.419H37.121A12.182,12.182,0,0,1,34.734,44.7H21.579a2.442,2.442,0,0,1-2.439-2.439V17.209H12.3A1.734,1.734,0,0,0,10.565,18.941ZM21.034,42.265V3.431a.546.546,0,0,1,.545-.546H41.756V8.328a2.3,2.3,0,0,0,2.295,2.294h5.442v17.87a12.124,12.124,0,0,0-10.54,1.729h-.477a.947.947,0,0,0-.947.947.917.917,0,0,0,.026.215,12.214,12.214,0,0,0-2.51,3.461H29.807a.947.947,0,1,0,0,1.895h4.51a12.075,12.075,0,0,0-.462,2.729h-.4a.947.947,0,0,0,0,1.895H33.9a12.219,12.219,0,0,0,.236,1.447H21.579a.545.545,0,0,1-.545-.545ZM43.651,4.226v4.1a.4.4,0,0,0,.4.4h4.1Zm7.736,12.984V29.245A12.136,12.136,0,0,1,56.032,46.94l.98.98A1.146,1.146,0,0,1,58.547,48l1.415,1.414V18.941a1.733,1.733,0,0,0-1.731-1.731H51.387Zm5.157,35.479-.815-.815,2-2.006.815.814Zm-2.256-3.71.828.829.552-.552-.829-.829c-.177.189-.361.374-.55.552Zm-8.305,1.4A10.253,10.253,0,1,1,56.237,40.122,10.265,10.265,0,0,1,45.983,50.375ZM66.271,60.408a3.315,3.315,0,0,1-4.684,0L55.975,54.8h-9.4l2.439,4.187a1.345,1.345,0,0,1,.008,1.36,1.373,1.373,0,0,1-1.186.69H22.689a1.372,1.372,0,0,1-1.186-.69,1.344,1.344,0,0,1,.008-1.36L23.95,54.8H12.3a3.629,3.629,0,0,1-3.625-3.624V18.941A3.63,3.63,0,0,1,12.3,15.315h6.843V3.431A2.443,2.443,0,0,1,21.579.991H42.086a2.386,2.386,0,0,1,1.724.715l6.864,6.863a2.389,2.389,0,0,1,.714,1.725v5.021h6.844a3.629,3.629,0,0,1,3.624,3.626V51.306l4.417,4.418a3.319,3.319,0,0,1,0,4.684ZM29.91,10.382a.918.918,0,0,0,.28.043.947.947,0,0,0,.9-.668l1.538-4.973a.947.947,0,1,0-1.809-.56L29.285,9.2A.946.946,0,0,0,29.91,10.382Zm3.186-.8a.949.949,0,0,0,1.339.043L36.311,7.86a.947.947,0,0,0,.051-1.329l-1.737-1.9a.947.947,0,0,0-1.4,1.279L34.333,7.12,33.138,8.241A.946.946,0,0,0,33.1,9.58Zm-5.8-.229a.947.947,0,1,0,1.4-1.278l-1.1-1.209,1.193-1.122a.947.947,0,1,0-1.3-1.38l-1.875,1.76a.948.948,0,0,0-.051,1.33Zm-2.8,8.9a.947.947,0,1,1,0-1.895h1.222a.947.947,0,0,1,0,1.895Zm0-4.625H31.2a.947.947,0,1,0,0-1.895H24.492a.947.947,0,1,0,0,1.895Zm0,27.742a.947.947,0,1,1,0-1.895h4.466a.947.947,0,0,1,0,1.895Zm0-9.247a.947.947,0,1,1,0-1.894h10.3a.947.947,0,0,1,0,1.894Zm0,4.624a.947.947,0,1,1,0-1.895h2.255a.947.947,0,0,1,0,1.895Zm0-13.87a.947.947,0,1,1,0-1.895H34.1a.947.947,0,0,1,0,1.895Zm0,4.623a.947.947,0,1,1,0-1.894h1.79a.947.947,0,0,1,0,1.894ZM29.4,25.6H32.81a.947.947,0,1,1,0,1.894H29.4a.947.947,0,0,1,0-1.894Zm4.818-12.925a.948.948,0,0,0,.947.948h2.108a.947.947,0,0,0,0-1.895H35.164A.948.948,0,0,0,34.217,12.673Zm5.6,12.925a.947.947,0,0,1,0,1.894H36.231a.947.947,0,1,1,0-1.894Zm5.593,0H43.087a.947.947,0,1,0,0,1.894h2.324a.947.947,0,1,0,0-1.894Zm-3.106-7.353h3.106a.947.947,0,1,0,0-1.895H42.306a.947.947,0,0,0,0,1.895Zm3.106,2.729a.947.947,0,1,1,0,1.895H37.439a.947.947,0,1,1,0-1.895ZM29.267,16.351H39a.947.947,0,0,1,0,1.895H29.267a.947.947,0,1,1,0-1.895Z" transform="translate(0 0)" fill-rule="evenodd"/>
    </g>
  </g>
</svg>
