<svg xmlns="http://www.w3.org/2000/svg" xmlns:xlink="http://www.w3.org/1999/xlink" width="113" height="113" viewBox="0 0 113 113">
  <defs>
    <filter id="Trazado_982547" x="0" y="0" width="113" height="113" filterUnits="userSpaceOnUse">
      <feOffset dy="3" input="SourceAlpha"/>
      <feGaussianBlur stdDeviation="3" result="blur"/>
      <feFlood flood-opacity="0.161"/>
      <feComposite operator="in" in2="blur"/>
      <feComposite in="SourceGraphic"/>
    </filter>
  </defs>
  <g id="Grupo_1225517" data-name="Grupo 1225517" transform="translate(-1216.232 -1295.342)">
    <g id="Grupo_1225179" data-name="Grupo 1225179" transform="translate(0 -3445.654)">
      <g id="Grupo_1224650" data-name="Grupo 1224650" transform="translate(0 1927)">
        <g id="Grupo_1224294" data-name="Grupo 1224294" transform="translate(0.723 859.245)">
          <g id="Grupo_1224094" data-name="Grupo 1224094" transform="translate(541.51 -2620.317)">
            <g id="Grupo_1223184" data-name="Grupo 1223184" transform="translate(683 4581.069)">
              <g id="Grupo_1211216" data-name="Grupo 1211216" transform="translate(0)">
                <g id="Grupo_1210737" data-name="Grupo 1210737">
                  <g id="Grupo_1210537" data-name="Grupo 1210537">
                    <g id="Grupo_1164202" data-name="Grupo 1164202">
                      <g id="Grupo_1158168" data-name="Grupo 1158168">
                        <g id="Grupo_1152576" data-name="Grupo 1152576">
                          <g id="Grupo_1148633" data-name="Grupo 1148633">
                            <g id="Grupo_1148525" data-name="Grupo 1148525">
                              <g transform="matrix(1, 0, 0, 1, -9, -6)" filter="url(#Trazado_982547)">
                                <g id="Trazado_982547-2" data-name="Trazado 982547" transform="translate(9 6)" fill="#fdfbec">
                                  <path d="M 47.49999618530273 93.5 C 41.28936767578125 93.5 35.26533126831055 92.28396606445312 29.59518241882324 89.88570404052734 C 24.11771583557129 87.56893157958984 19.19812965393066 84.251953125 14.97308921813965 80.02690124511719 C 10.74803638458252 75.80186462402344 7.431062698364258 70.88227844238281 5.114289283752441 65.40480804443359 C 2.716022968292236 59.73466110229492 1.499996185302734 53.71062469482422 1.499996185302734 47.49999618530273 C 1.499996185302734 41.28936767578125 2.716022968292236 35.26533126831055 5.114289283752441 29.59518241882324 C 7.431062698364258 24.11771583557129 10.74803638458252 19.19812965393066 14.97308921813965 14.97308921813965 C 19.19812965393066 10.74803638458252 24.11771583557129 7.431062698364258 29.59518241882324 5.114289283752441 C 35.26533126831055 2.716022968292236 41.28936767578125 1.499996185302734 47.49999618530273 1.499996185302734 C 53.71062469482422 1.499996185302734 59.73466110229492 2.716022968292236 65.40480804443359 5.114289283752441 C 70.88227844238281 7.431062698364258 75.80186462402344 10.74803638458252 80.02690124511719 14.97308921813965 C 84.251953125 19.19812965393066 87.56893157958984 24.11771583557129 89.88570404052734 29.59518241882324 C 92.28396606445312 35.26533126831055 93.5 41.28936767578125 93.5 47.49999618530273 C 93.5 53.71062469482422 92.28396606445312 59.73466110229492 89.88570404052734 65.40480804443359 C 87.56893157958984 70.88227844238281 84.251953125 75.80186462402344 80.02690124511719 80.02690124511719 C 75.80186462402344 84.251953125 70.88227844238281 87.56893157958984 65.40480804443359 89.88570404052734 C 59.73466110229492 92.28396606445312 53.71062469482422 93.5 47.49999618530273 93.5 Z" stroke="none"/>
                                  <path d="M 47.49999618530273 2.999992370605469 C 41.4912109375 2.999992370605469 35.66376495361328 4.1761474609375 30.17950439453125 6.495796203613281 C 24.88084411621094 8.736953735351562 20.12152099609375 11.94598388671875 16.03375244140625 16.03375244140625 C 11.94598388671875 20.12152099609375 8.736953735351562 24.88084411621094 6.495796203613281 30.17950439453125 C 4.1761474609375 35.66376495361328 2.999992370605469 41.4912109375 2.999992370605469 47.49999618530273 C 2.999992370605469 53.50878143310547 4.1761474609375 59.33622741699219 6.495796203613281 64.82048797607422 C 8.736953735351562 70.11914825439453 11.94598388671875 74.87847137451172 16.03375244140625 78.96623992919922 C 20.12152099609375 83.05400848388672 24.88084411621094 86.26304626464844 30.17950439453125 88.50419616699219 C 35.66376495361328 90.82384490966797 41.4912109375 92 47.49999618530273 92 C 53.50878143310547 92 59.33622741699219 90.82384490966797 64.82048797607422 88.50419616699219 C 70.11914825439453 86.26304626464844 74.87847137451172 83.05400848388672 78.96623992919922 78.96623992919922 C 83.05400848388672 74.87847137451172 86.26304626464844 70.11914825439453 88.50419616699219 64.82048797607422 C 90.82384490966797 59.33622741699219 92 53.50878143310547 92 47.49999618530273 C 92 41.4912109375 90.82384490966797 35.66376495361328 88.50419616699219 30.17950439453125 C 86.26304626464844 24.88084411621094 83.05400848388672 20.12152099609375 78.96623992919922 16.03375244140625 C 74.87847137451172 11.94598388671875 70.11914825439453 8.736953735351562 64.82048797607422 6.495796203613281 C 59.33622741699219 4.1761474609375 53.50878143310547 2.999992370605469 47.49999618530273 2.999992370605469 M 47.49999618530273 -7.62939453125e-06 C 73.7335205078125 -7.62939453125e-06 95 21.26647186279297 95 47.49999618530273 C 95 73.7335205078125 73.7335205078125 95 47.49999618530273 95 C 21.26647186279297 95 -7.62939453125e-06 73.7335205078125 -7.62939453125e-06 47.49999618530273 C -7.62939453125e-06 21.26647186279297 21.26647186279297 -7.62939453125e-06 47.49999618530273 -7.62939453125e-06 Z" stroke="none" fill="#83793c"/>
                                </g>
                              </g>
                            </g>
                          </g>
                        </g>
                      </g>
                    </g>
                  </g>
                </g>
              </g>
            </g>
          </g>
        </g>
      </g>
    </g>
    <g id="_80-Programming" data-name="80-Programming" transform="translate(1244.27 1322.073)">
      <path id="Trazado_1052785" data-name="Trazado 1052785" d="M56.145,11V51.914a1.784,1.784,0,0,1-1.779,1.779H2.779A1.784,1.784,0,0,1,1,51.914V11Z" transform="translate(-0.111 -1.216)" fill="#dfe1ea"/>
      <path id="Trazado_1052786" data-name="Trazado 1052786" d="M54.366,1a1.784,1.784,0,0,1,1.779,1.779V9.894H1V2.779A1.784,1.784,0,0,1,2.779,1Z" transform="translate(-0.111 -0.111)" fill="#adb2c7"/>
      <path id="Trazado_1052787" data-name="Trazado 1052787" d="M35.332,20.779c-6.76,0-6.76-1.779-13.519-1.779s-6.76,1.779-13.519,1.779A23.786,23.786,0,0,1,1,19.75v7.116a23.786,23.786,0,0,0,7.293,1.028c6.76,0,6.76-1.779,13.519-1.779s6.76,1.779,13.519,1.779,6.76-1.779,13.519-1.779a23.825,23.825,0,0,1,7.293,1.029V20.029A23.826,23.826,0,0,0,48.852,19C42.092,19,42.092,20.779,35.332,20.779Z" transform="translate(-0.111 -2.1)" fill="#cdd2e1"/>
      <path id="Trazado_1052788" data-name="Trazado 1052788" d="M1,11v7.866a23.786,23.786,0,0,0,7.293,1.028c6.76,0,6.76-1.779,13.519-1.779s6.76,1.779,13.519,1.779,6.76-1.779,13.519-1.779a23.826,23.826,0,0,1,7.293,1.029V11Z" transform="translate(-0.111 -1.216)" fill="#f6fafd"/>
      <path id="Trazado_1052789" data-name="Trazado 1052789" d="M35.558,46A3.558,3.558,0,0,0,32,49.558v8h7.116v-8A3.558,3.558,0,0,0,35.558,46Z" transform="translate(-3.538 -5.086)" fill="#bec3d2"/>
      <path id="Trazado_1052790" data-name="Trazado 1052790" d="M37.107,28.778c-6.76,0-6.76-1.779-13.519-1.779a22.582,22.582,0,0,0-6.535.831A16.889,16.889,0,0,0,50.8,27h-.178C43.867,27,43.867,28.778,37.107,28.778Z" transform="translate(-1.885 -2.985)" fill="#bec3d2"/>
      <path id="Trazado_1052791" data-name="Trazado 1052791" d="M34.87,8a16.8,16.8,0,0,0-9.09,2.67l18.177,0A16.8,16.8,0,0,0,34.87,8Z" transform="translate(-2.85 -0.884)" fill="#7e8596"/>
      <path id="Trazado_1052792" data-name="Trazado 1052792" d="M23.577,19a22.976,22.976,0,0,0-5.236.513,16.845,16.845,0,0,0-1.34,6.6c0,.28.028.554.042.831a22.582,22.582,0,0,1,6.535-.831c6.76,0,6.76,1.779,13.519,1.779s6.76-1.779,13.52-1.779h.178a16.794,16.794,0,0,0-1.573-7.084c-5.39.227-5.866,1.748-12.119,1.748-6.76,0-6.76-1.779-13.525-1.779Z" transform="translate(-1.88 -2.1)" fill="#bec3d2"/>
      <path id="Trazado_1052793" data-name="Trazado 1052793" d="M18.507,18.629a22.976,22.976,0,0,1,5.236-.513c6.76,0,6.76,1.779,13.519,1.779,6.257,0,6.733-1.521,12.128-1.748A16.946,16.946,0,0,0,43.153,11H24.979a16.959,16.959,0,0,0-6.472,7.629Z" transform="translate(-2.046 -1.216)" fill="#bec3d2"/>
      <path id="Trazado_1052794" data-name="Trazado 1052794" d="M9,5h1.779V6.779H9Z" transform="translate(-0.995 -0.553)" fill="#fff"/>
      <path id="Trazado_1052795" data-name="Trazado 1052795" d="M35.116,50V62.452H28V50a3.558,3.558,0,1,0,7.116,0Z" transform="translate(-3.096 -5.528)" fill="#afb4c8"/>
      <ellipse id="Elipse_13134" data-name="Elipse 13134" cx="13.5" cy="13" rx="13.5" ry="13" transform="translate(14.997 10.927)" fill="#ffa426"/>
      <ellipse id="Elipse_13135" data-name="Elipse 13135" cx="2.5" cy="3" rx="2.5" ry="3" transform="translate(25.997 40.927)" fill="#cdd2e1"/>
      <path id="Trazado_1052796" data-name="Trazado 1052796" d="M29.9,8A16.9,16.9,0,1,1,13,24.9,16.9,16.9,0,0,1,29.9,8ZM43.241,24.9A13.342,13.342,0,1,0,29.9,38.241,13.342,13.342,0,0,0,43.241,24.9Z" transform="translate(-1.437 -0.884)" fill="#adb2c7"/>
      <path id="Trazado_1052797" data-name="Trazado 1052797" d="M31.558,53.558A3.558,3.558,0,0,1,28,50v5.37a32.623,32.623,0,0,1,7.116,1.289V50A3.558,3.558,0,0,1,31.558,53.558Z" transform="translate(-3.096 -5.528)" fill="#9196aa"/>
      <path id="Trazado_1052798" data-name="Trazado 1052798" d="M42.319,20.269a23.016,23.016,0,0,1-5.217.51c-6.76,0-6.76-1.779-13.519-1.779a23.764,23.764,0,0,0-4.754.41A13.253,13.253,0,0,0,17,26.115c0,.28.025.555.042.831a22.582,22.582,0,0,1,6.535-.831c6.76,0,6.76,1.779,13.519,1.779a22.592,22.592,0,0,0,6.538-.832c.023-.314.049-.627.049-.947a13.253,13.253,0,0,0-1.364-5.846Z" transform="translate(-1.88 -2.1)" fill="#ffc247"/>
      <path id="Trazado_1052799" data-name="Trazado 1052799" d="M37.328,20a23.016,23.016,0,0,0,5.222-.51,13.317,13.317,0,0,0-23.5-.859,23.764,23.764,0,0,1,4.75-.41C30.569,18.226,30.569,20,37.328,20Z" transform="translate(-2.107 -1.327)" fill="#f5e3a7"/>
      <path id="Trazado_1052800" data-name="Trazado 1052800" d="M28,60h7.116v3.558H28Z" transform="translate(-3.096 -6.634)" fill="#cdd2e1"/>
      <g id="Grupo_1225516" data-name="Grupo 1225516" transform="translate(4.447 19.409)">
        <path id="Trazado_1052801" data-name="Trazado 1052801" d="M0,0H9.944V1.778H0Z" transform="matrix(0.179, -0.984, 0.984, 0.179, 22.259, 9.785)" fill="#fff"/>
        <path id="Trazado_1052802" data-name="Trazado 1052802" d="M57,49h1.779v6.226H57Z" transform="translate(-10.749 -24.827)" fill="#fff"/>
        <path id="Trazado_1052803" data-name="Trazado 1052803" d="M5,49H6.779v6.226H5Z" transform="translate(-5 -24.827)" fill="#fff"/>
      </g>
      <path id="Trazado_1052804" data-name="Trazado 1052804" d="M54.256,0H2.668A2.668,2.668,0,0,0,0,2.668V50.7a2.668,2.668,0,0,0,2.668,2.668H24.015v3.558h1.779V48.007a4.358,4.358,0,0,0,5.337,0v8.918h1.779V53.366H54.256A2.668,2.668,0,0,0,56.924,50.7V2.668A2.668,2.668,0,0,0,54.256,0ZM28.462,47.14a2.668,2.668,0,1,1,2.668-2.668,2.668,2.668,0,0,1-2.668,2.668Zm0-7.116a16.01,16.01,0,1,1,16.01-16.01A16.01,16.01,0,0,1,28.462,40.025ZM54.256,51.588H32.909V44.472a4.416,4.416,0,0,0-1.172-2.983,17.789,17.789,0,1,0-6.55,0,4.416,4.416,0,0,0-1.172,2.983v7.116H2.668a.889.889,0,0,1-.889-.889V10.673H14.231V8.894H1.779V2.668a.889.889,0,0,1,.889-.889H54.256a.889.889,0,0,1,.889.889V8.894H42.693v1.779H55.145V50.7A.889.889,0,0,1,54.256,51.588Z" transform="translate(0)"/>
      <path id="Trazado_1052805" data-name="Trazado 1052805" d="M5,5H6.779V6.779H5Z" transform="translate(-0.553 -0.553)"/>
      <path id="Trazado_1052806" data-name="Trazado 1052806" d="M30.231,11A14.231,14.231,0,1,0,44.462,25.231,14.231,14.231,0,0,0,30.231,11Zm0,26.683A12.452,12.452,0,1,1,42.683,25.231,12.452,12.452,0,0,1,30.231,37.683Z" transform="translate(-1.769 -1.216)"/>
      <path id="Trazado_1052807" data-name="Trazado 1052807" d="M25.708,21.293,21.261,25.74a.889.889,0,0,0,0,1.258l4.447,4.447,1.258-1.258-3.818-3.818,3.818-3.818Z" transform="translate(-2.322 -2.354)"/>
      <path id="Trazado_1052808" data-name="Trazado 1052808" d="M42,25.74l-4.447-4.447-1.258,1.258,3.818,3.818-3.818,3.818,1.258,1.258L42,27A.889.889,0,0,0,42,25.74Z" transform="translate(-4.013 -2.354)"/>
      <path id="Trazado_1052809" data-name="Trazado 1052809" d="M58.558,24.447a.721.721,0,0,1-.631-.258c-.543-.661-.42-2.392-.276-3.127A.889.889,0,0,0,56.779,20H55v1.779h.769a5.217,5.217,0,0,0,.78,3.537,2.417,2.417,0,0,0,1.119.773v.274a2.417,2.417,0,0,0-1.119.773,5.217,5.217,0,0,0-.78,3.537H55v1.779h1.779a.889.889,0,0,0,.872-1.062c-.144-.736-.267-2.466.276-3.127A.721.721,0,0,1,58.558,28a.889.889,0,0,0,.889-.889V25.337a.889.889,0,0,0-.889-.889Z" transform="translate(-6.081 -2.211)"/>
      <path id="Trazado_1052810" data-name="Trazado 1052810" d="M4.889,28a.721.721,0,0,1,.632.258c.543.661.42,2.392.276,3.127a.889.889,0,0,0,.872,1.062H8.447V30.673H7.678a5.217,5.217,0,0,0-.78-3.537,2.417,2.417,0,0,0-1.119-.773v-.274A2.417,2.417,0,0,0,6.9,25.316a5.217,5.217,0,0,0,.78-3.537h.769V20H6.668A.889.889,0,0,0,5.8,21.062c.144.736.267,2.466-.276,3.127a.721.721,0,0,1-.632.258A.889.889,0,0,0,4,25.337v1.779A.889.889,0,0,0,4.889,28Z" transform="translate(-0.442 -2.211)"/>
      <path id="Trazado_1052811" data-name="Trazado 1052811" d="M45,49h1.779v6.226H45Z" transform="translate(-4.975 -5.417)"/>
      <path id="Trazado_1052812" data-name="Trazado 1052812" d="M52.558,49H50.779A1.779,1.779,0,0,0,49,50.779v2.668a1.779,1.779,0,0,0,1.779,1.779h1.779a1.779,1.779,0,0,0,1.779-1.779V50.779A1.779,1.779,0,0,0,52.558,49Zm0,4.447H50.779V50.779h1.779Z" transform="translate(-5.417 -5.417)"/>
      <path id="Trazado_1052813" data-name="Trazado 1052813" d="M57.558,40H55.779A1.779,1.779,0,0,0,54,41.779v2.668a1.779,1.779,0,0,0,1.779,1.779h1.779a1.779,1.779,0,0,0,1.779-1.779V41.779A1.779,1.779,0,0,0,57.558,40Zm0,4.447H55.779V41.779h1.779Z" transform="translate(-5.97 -4.422)"/>
      <path id="Trazado_1052814" data-name="Trazado 1052814" d="M17,49h1.779v6.226H17Z" transform="translate(-1.88 -5.417)"/>
      <path id="Trazado_1052815" data-name="Trazado 1052815" d="M9,50.779v2.668a1.779,1.779,0,0,0,1.779,1.779h1.779a1.779,1.779,0,0,0,1.779-1.779V50.779A1.779,1.779,0,0,0,12.558,49H10.779A1.779,1.779,0,0,0,9,50.779Zm3.558,2.668H10.779V50.779h1.779Z" transform="translate(-0.995 -5.417)"/>
      <path id="Trazado_1052816" data-name="Trazado 1052816" d="M9.337,44.447V41.779A1.779,1.779,0,0,0,7.558,40H5.779A1.779,1.779,0,0,0,4,41.779v2.668a1.779,1.779,0,0,0,1.779,1.779H7.558A1.779,1.779,0,0,0,9.337,44.447Zm-1.779,0H5.779V41.779H7.558Z" transform="translate(-0.442 -4.422)"/>
      <ellipse id="Elipse_13136" data-name="Elipse 13136" cx="2" cy="1.5" rx="2" ry="1.5" transform="translate(25.997 42.927)" fill="#dfe1ea"/>
    </g>
  </g>
</svg>
