<svg xmlns="http://www.w3.org/2000/svg" width="695" height="369" viewBox="0 0 695 369">
  <g id="Grupo_1225606" data-name="Grupo 1225606" transform="translate(-462 -8038)">
    <g id="Rectángulo_422170" data-name="Rectángulo 422170" transform="translate(745 8038)" fill="#b2e1fd" stroke="#0b0a0a" stroke-width="1">
      <rect width="148" height="64" stroke="none"/>
      <rect x="0.5" y="0.5" width="147" height="63" fill="none"/>
    </g>
    <g id="Rectángulo_422171" data-name="Rectángulo 422171" transform="translate(1009 8038)" fill="#b2e1fd" stroke="#0b0a0a" stroke-width="1">
      <rect width="148" height="64" stroke="none"/>
      <rect x="0.5" y="0.5" width="147" height="63" fill="none"/>
    </g>
    <g id="Rectángulo_422172" data-name="Rectángulo 422172" transform="translate(849 8343)" fill="#b2e1fd" stroke="#0b0a0a" stroke-width="1">
      <rect width="148" height="64" stroke="none"/>
      <rect x="0.5" y="0.5" width="147" height="63" fill="none"/>
    </g>
    <g id="Rectángulo_422173" data-name="Rectángulo 422173" transform="translate(462 8251)" fill="#b2e1fd" stroke="#0b0a0a" stroke-width="1">
      <rect width="148" height="64" stroke="none"/>
      <rect x="0.5" y="0.5" width="147" height="63" fill="none"/>
    </g>
    <text id="Main_tip" data-name="Main tip" transform="translate(820 8077)" fill="#0b0a0a" font-size="18" font-family="Helvetica-Bold, Helvetica" font-weight="700" letter-spacing="0em"><tspan x="-34.002" y="0">Main tip</tspan></text>
    <text id="New_merge_Commit" data-name="New merge
Commit" transform="translate(1084 8065)" fill="#0b0a0a" font-size="18" font-family="Helvetica-Bold, Helvetica" font-weight="700" letter-spacing="0em"><tspan x="-48.026" y="0">New merge</tspan><tspan x="-33.504" y="21">Commit</tspan></text>
    <text id="Feature_tip" data-name="Feature tip" transform="translate(924 8380)" fill="#0b0a0a" font-size="18" font-family="Helvetica-Bold, Helvetica" font-weight="700" letter-spacing="0em"><tspan x="-46.015" y="0">Feature tip</tspan></text>
    <text id="Common_base" data-name="Common base" transform="translate(537 8288)" fill="#0b0a0a" font-size="18" font-family="Helvetica-Bold, Helvetica" font-weight="700" letter-spacing="0em"><tspan x="-62.02" y="0">Common base</tspan></text>
    <g id="Grupo_1225474" data-name="Grupo 1225474">
      <path id="Trazado_1052709" data-name="Trazado 1052709" d="M4287,8252.967v-32.29l-9.527,10.8" transform="translate(-3749.5 -6.632)" fill="none" stroke="#0b0a0a" stroke-linecap="round" stroke-linejoin="round" stroke-width="3"/>
      <path id="Trazado_1052710" data-name="Trazado 1052710" d="M4277.473,8252.967v-32.29l9.527,10.8" transform="translate(-3739.973 -6.632)" fill="none" stroke="#0b0a0a" stroke-linecap="round" stroke-linejoin="round" stroke-width="3"/>
    </g>
    <g id="Grupo_1225475" data-name="Grupo 1225475" transform="translate(384.5 90.955)">
      <path id="Trazado_1052709-2" data-name="Trazado 1052709" d="M4287,8252.967v-32.29l-9.527,10.8" transform="translate(-3749.5 -6.632)" fill="none" stroke="#0b0a0a" stroke-linecap="round" stroke-linejoin="round" stroke-width="3"/>
      <path id="Trazado_1052710-2" data-name="Trazado 1052710" d="M4277.473,8252.967v-32.29l9.527,10.8" transform="translate(-3739.973 -6.632)" fill="none" stroke="#0b0a0a" stroke-linecap="round" stroke-linejoin="round" stroke-width="3"/>
    </g>
    <g id="Grupo_1225476" data-name="Grupo 1225476" transform="translate(809.473 8106)">
      <path id="Trazado_1052709-3" data-name="Trazado 1052709" d="M4287,8220.678v32.29l-9.527-10.8" transform="translate(-4277.473 -8220.678)" fill="none" stroke="#0b0a0a" stroke-linecap="round" stroke-linejoin="round" stroke-width="3"/>
      <path id="Trazado_1052710-3" data-name="Trazado 1052710" d="M4277.473,8220.678v32.29l9.527-10.8" transform="translate(-4267.945 -8220.678)" fill="none" stroke="#0b0a0a" stroke-linecap="round" stroke-linejoin="round" stroke-width="3"/>
    </g>
    <g id="Grupo_1225477" data-name="Grupo 1225477" transform="translate(1078.634 8106)">
      <path id="Trazado_1052709-4" data-name="Trazado 1052709" d="M4287,8220.678v32.29l-9.527-10.8" transform="translate(-4277.473 -8220.678)" fill="none" stroke="#0b0a0a" stroke-linecap="round" stroke-linejoin="round" stroke-width="3"/>
      <path id="Trazado_1052710-4" data-name="Trazado 1052710" d="M4277.473,8220.678v32.29l9.527-10.8" transform="translate(-4267.945 -8220.678)" fill="none" stroke="#0b0a0a" stroke-linecap="round" stroke-linejoin="round" stroke-width="3"/>
    </g>
    <path id="Trazado_1052711" data-name="Trazado 1052711" d="M4287.5,8176h541.134" transform="translate(-3750)" fill="none" stroke="#0b0a0a" stroke-width="5"/>
    <g id="Elipse_13125" data-name="Elipse 13125" transform="translate(511 8150)" fill="#b3e3ff" stroke="#0b0a0a" stroke-width="3">
      <circle cx="26" cy="26" r="26" stroke="none"/>
      <circle cx="26" cy="26" r="24.5" fill="none"/>
    </g>
    <g id="Elipse_13126" data-name="Elipse 13126" transform="translate(681 8150)" fill="#b3e3ff" stroke="#0b0a0a" stroke-width="3">
      <circle cx="26" cy="26" r="26" stroke="none"/>
      <circle cx="26" cy="26" r="24.5" fill="none"/>
    </g>
    <g id="Elipse_13127" data-name="Elipse 13127" transform="translate(793 8150)" fill="#b3e3ff" stroke="#0b0a0a" stroke-width="3">
      <circle cx="26" cy="26" r="26" stroke="none"/>
      <circle cx="26" cy="26" r="24.5" fill="none"/>
    </g>
    <g id="Elipse_13128" data-name="Elipse 13128" transform="translate(1058 8150)" fill="#b3e3ff" stroke="#0b0a0a" stroke-width="3">
      <circle cx="26" cy="26" r="26" stroke="none"/>
      <circle cx="26" cy="26" r="24.5" fill="none"/>
    </g>
    <path id="Trazado_1052712" data-name="Trazado 1052712" d="M4360,8176s17.017,3.133,27.8,22.584.313,33.876,11.5,51.385,33.258,18.65,33.258,18.65h276.582s9.97,3.58,19.173-16.062,4.7-37.676,15.722-56.753,28.376-19.557,28.376-19.557" transform="translate(-3750)" fill="none" stroke="#0b0a0a" stroke-width="5"/>
    <g id="Elipse_13130" data-name="Elipse 13130" transform="translate(681 8243)" fill="#4ed1a1" stroke="#0b0a0a" stroke-width="3">
      <circle cx="26" cy="26" r="26" stroke="none"/>
      <circle cx="26" cy="26" r="24.5" fill="none"/>
    </g>
    <g id="Elipse_13129" data-name="Elipse 13129" transform="translate(793 8243)" fill="#4ed1a1" stroke="#0b0a0a" stroke-width="3">
      <circle cx="26" cy="26" r="26" stroke="none"/>
      <circle cx="26" cy="26" r="24.5" fill="none"/>
    </g>
    <g id="Elipse_13131" data-name="Elipse 13131" transform="translate(898 8243)" fill="#4ed1a1" stroke="#0b0a0a" stroke-width="3">
      <circle cx="26" cy="26" r="26" stroke="none"/>
      <circle cx="26" cy="26" r="24.5" fill="none"/>
    </g>
  </g>
</svg>
