<svg xmlns="http://www.w3.org/2000/svg" xmlns:xlink="http://www.w3.org/1999/xlink" width="113" height="113" viewBox="0 0 113 113">
  <defs>
    <filter id="Trazado_982547" x="0" y="0" width="113" height="113" filterUnits="userSpaceOnUse">
      <feOffset dy="3" input="SourceAlpha"/>
      <feGaussianBlur stdDeviation="3" result="blur"/>
      <feFlood flood-opacity="0.161"/>
      <feComposite operator="in" in2="blur"/>
      <feComposite in="SourceGraphic"/>
    </filter>
  </defs>
  <g id="Grupo_1225492" data-name="Grupo 1225492" transform="translate(-585.509 -1295.342)">
    <g id="Grupo_1225176" data-name="Grupo 1225176" transform="translate(0 -3445.654)">
      <g id="Grupo_1224647" data-name="Grupo 1224647" transform="translate(0 1927)">
        <g id="Grupo_1224292" data-name="Grupo 1224292" transform="translate(0 859.245)">
          <g id="Grupo_1224092" data-name="Grupo 1224092" transform="translate(-88.49 -2620.317)">
            <g id="Grupo_1223184" data-name="Grupo 1223184" transform="translate(683 4581.069)">
              <g id="Grupo_1211216" data-name="Grupo 1211216" transform="translate(0)">
                <g id="Grupo_1210737" data-name="Grupo 1210737">
                  <g id="Grupo_1210537" data-name="Grupo 1210537">
                    <g id="Grupo_1164202" data-name="Grupo 1164202">
                      <g id="Grupo_1158168" data-name="Grupo 1158168">
                        <g id="Grupo_1152576" data-name="Grupo 1152576">
                          <g id="Grupo_1148633" data-name="Grupo 1148633">
                            <g id="Grupo_1148525" data-name="Grupo 1148525">
                              <g transform="matrix(1, 0, 0, 1, -9, -6)" filter="url(#Trazado_982547)">
                                <g id="Trazado_982547-2" data-name="Trazado 982547" transform="translate(9 6)" fill="#fdfbec">
                                  <path d="M 47.49999618530273 93.5 C 41.28936767578125 93.5 35.26533126831055 92.28396606445312 29.59518241882324 89.88570404052734 C 24.11771583557129 87.56893157958984 19.19812965393066 84.251953125 14.97308921813965 80.02690124511719 C 10.74803638458252 75.80186462402344 7.431062698364258 70.88227844238281 5.114289283752441 65.40480804443359 C 2.716022968292236 59.73466110229492 1.499996185302734 53.71062469482422 1.499996185302734 47.49999618530273 C 1.499996185302734 41.28936767578125 2.716022968292236 35.26533126831055 5.114289283752441 29.59518241882324 C 7.431062698364258 24.11771583557129 10.74803638458252 19.19812965393066 14.97308921813965 14.97308921813965 C 19.19812965393066 10.74803638458252 24.11771583557129 7.431062698364258 29.59518241882324 5.114289283752441 C 35.26533126831055 2.716022968292236 41.28936767578125 1.499996185302734 47.49999618530273 1.499996185302734 C 53.71062469482422 1.499996185302734 59.73466110229492 2.716022968292236 65.40480804443359 5.114289283752441 C 70.88227844238281 7.431062698364258 75.80186462402344 10.74803638458252 80.02690124511719 14.97308921813965 C 84.251953125 19.19812965393066 87.56893157958984 24.11771583557129 89.88570404052734 29.59518241882324 C 92.28396606445312 35.26533126831055 93.5 41.28936767578125 93.5 47.49999618530273 C 93.5 53.71062469482422 92.28396606445312 59.73466110229492 89.88570404052734 65.40480804443359 C 87.56893157958984 70.88227844238281 84.251953125 75.80186462402344 80.02690124511719 80.02690124511719 C 75.80186462402344 84.251953125 70.88227844238281 87.56893157958984 65.40480804443359 89.88570404052734 C 59.73466110229492 92.28396606445312 53.71062469482422 93.5 47.49999618530273 93.5 Z" stroke="none"/>
                                  <path d="M 47.49999618530273 2.999992370605469 C 41.4912109375 2.999992370605469 35.66376495361328 4.1761474609375 30.17950439453125 6.495796203613281 C 24.88084411621094 8.736953735351562 20.12152099609375 11.94598388671875 16.03375244140625 16.03375244140625 C 11.94598388671875 20.12152099609375 8.736953735351562 24.88084411621094 6.495796203613281 30.17950439453125 C 4.1761474609375 35.66376495361328 2.999992370605469 41.4912109375 2.999992370605469 47.49999618530273 C 2.999992370605469 53.50878143310547 4.1761474609375 59.33622741699219 6.495796203613281 64.82048797607422 C 8.736953735351562 70.11914825439453 11.94598388671875 74.87847137451172 16.03375244140625 78.96623992919922 C 20.12152099609375 83.05400848388672 24.88084411621094 86.26304626464844 30.17950439453125 88.50419616699219 C 35.66376495361328 90.82384490966797 41.4912109375 92 47.49999618530273 92 C 53.50878143310547 92 59.33622741699219 90.82384490966797 64.82048797607422 88.50419616699219 C 70.11914825439453 86.26304626464844 74.87847137451172 83.05400848388672 78.96623992919922 78.96623992919922 C 83.05400848388672 74.87847137451172 86.26304626464844 70.11914825439453 88.50419616699219 64.82048797607422 C 90.82384490966797 59.33622741699219 92 53.50878143310547 92 47.49999618530273 C 92 41.4912109375 90.82384490966797 35.66376495361328 88.50419616699219 30.17950439453125 C 86.26304626464844 24.88084411621094 83.05400848388672 20.12152099609375 78.96623992919922 16.03375244140625 C 74.87847137451172 11.94598388671875 70.11914825439453 8.736953735351562 64.82048797607422 6.495796203613281 C 59.33622741699219 4.1761474609375 53.50878143310547 2.999992370605469 47.49999618530273 2.999992370605469 M 47.49999618530273 -7.62939453125e-06 C 73.7335205078125 -7.62939453125e-06 95 21.26647186279297 95 47.49999618530273 C 95 73.7335205078125 73.7335205078125 95 47.49999618530273 95 C 21.26647186279297 95 -7.62939453125e-06 73.7335205078125 -7.62939453125e-06 47.49999618530273 C -7.62939453125e-06 21.26647186279297 21.26647186279297 -7.62939453125e-06 47.49999618530273 -7.62939453125e-06 Z" stroke="none" fill="#83793c"/>
                                </g>
                              </g>
                            </g>
                          </g>
                        </g>
                      </g>
                    </g>
                  </g>
                </g>
              </g>
            </g>
          </g>
        </g>
      </g>
    </g>
    <g id="crisis-management_18508888" transform="translate(596.386 1303.428)">
      <g id="Grupo_1225491" data-name="Grupo 1225491" transform="translate(18.52 16)">
        <path id="Trazado_1052746" data-name="Trazado 1052746" d="M63.319,25.069a.784.784,0,0,1,.238.567V44.678a.968.968,0,0,1,.827.234l.951.951a.777.777,0,0,1,.229.553v1.533a10.938,10.938,0,0,1,2.791,1.158l1.086-1.085a.777.777,0,0,1,.553-.229h1.348a.787.787,0,0,1,.559.234l1.483,1.484a.782.782,0,0,1,.229.553v1.348a.782.782,0,0,1-.234.559L72.3,53.051a10.933,10.933,0,0,1,1.159,2.792h1.532a.779.779,0,0,1,.558.234l.951.951a.777.777,0,0,1,.229.553v2.1a.786.786,0,0,1-.234.559l-.952.951a.782.782,0,0,1-.553.229H73.456A10.967,10.967,0,0,1,72.3,64.215L73.382,65.3a.782.782,0,0,1,.229.553V67.2a.781.781,0,0,1-.234.559l-1.483,1.483a.78.78,0,0,1-.554.229H69.992a.779.779,0,0,1-.553-.234l-1.081-1.08a10.982,10.982,0,0,1-2.8,1.153v1.532a.787.787,0,0,1-.234.559l-.952.951c-.273.273-.569.229-.925.229a3.027,3.027,0,0,1-2.916,2.244H21.54a3.025,3.025,0,0,1-3.02-3.02V19.022A3.025,3.025,0,0,1,21.54,16H53.929a.777.777,0,0,1,.559.245Z" transform="translate(-18.52 -16)" fill-rule="evenodd"/>
        <path id="Trazado_1052747" data-name="Trazado 1052747" d="M336.47,317.642a.783.783,0,1,1,1.565,0v5.276a.783.783,0,1,1-1.565,0Zm0,7.711a.783.783,0,1,1,.225.56A.783.783,0,0,1,336.47,325.353Zm.783,2.064a5.913,5.913,0,1,0-5.913-5.913A5.913,5.913,0,0,0,337.253,327.417Z" transform="translate(-293.002 -278.873)" fill="#67aaf3" fill-rule="evenodd"/>
        <path id="Trazado_1052748" data-name="Trazado 1052748" d="M296.15,280.4a7.476,7.476,0,1,1,0-10.577A7.476,7.476,0,0,1,296.15,280.4Zm-13.2-10.5a9.528,9.528,0,0,0-1.37,3.323.783.783,0,0,1-.775.665h-1.835l-.5.5v1.456l.5.5h1.83a.783.783,0,0,1,.775.667,9.385,9.385,0,0,0,1.375,3.321.783.783,0,0,1-.063,1.037l-1.3,1.3v.7l1.028,1.029h.7l1.3-1.292a.782.782,0,0,1,1.037-.061,9.511,9.511,0,0,0,1.587.837,9.316,9.316,0,0,0,1.734.528.784.784,0,0,1,.667.775v1.831l.5.5h1.455l.5-.5v-1.826a.784.784,0,0,1,.667-.775,9.314,9.314,0,0,0,1.734-.528,9.512,9.512,0,0,0,1.587-.841.782.782,0,0,1,1.037.061l1.3,1.3h.7l1.028-1.029v-.708l-1.294-1.3a.783.783,0,0,1-.062-1.037,9.387,9.387,0,0,0,1.37-3.321.783.783,0,0,1,.775-.667h1.83l.5-.5v-1.456l-.5-.5h-1.83a.783.783,0,0,1-.775-.665,9.4,9.4,0,0,0-1.37-3.323.783.783,0,0,1,.062-1.037l1.294-1.294v-.7l-1.028-1.029h-.7l-1.3,1.294a.782.782,0,0,1-1.037.063,9.422,9.422,0,0,0-1.587-.841,9.325,9.325,0,0,0-1.737-.533.783.783,0,0,1-.667-.775v-1.826l-.5-.5h-1.452l-.5.5v1.83a.783.783,0,0,1-.667.775,9.326,9.326,0,0,0-1.734.529,9.42,9.42,0,0,0-1.587.841.782.782,0,0,1-1.037-.062l-1.3-1.294h-.7l-1.028,1.029v.7l1.294,1.294A.783.783,0,0,1,282.947,269.9Z" transform="translate(-246.611 -232.483)" fill="#378fef" fill-rule="evenodd"/>
        <path id="Trazado_1052749" data-name="Trazado 1052749" d="M313.83,37.83v5.078A1.1,1.1,0,0,0,314.921,44H320Z" transform="translate(-277.638 -35.155)" fill="#919091" fill-rule="evenodd"/>
        <path id="Trazado_1052750" data-name="Trazado 1052750" d="M73.2,37.641H67.017a2.662,2.662,0,0,1-2.656-2.657V28.8H32.754A1.457,1.457,0,0,0,31.3,30.254V83.036a1.457,1.457,0,0,0,1.454,1.454H71.749a1.454,1.454,0,0,0,1.226-.67.782.782,0,0,1-.6-.234l-.951-.951a.779.779,0,0,1-.229-.554V80.543a10.983,10.983,0,0,1-2.8-1.153l-1.086,1.085a.777.777,0,0,1-.553.229H65.411a.781.781,0,0,1-.559-.234l-1.479-1.483a.784.784,0,0,1-.229-.554V77.085a.779.779,0,0,1,.229-.561l1.081-1.081a10.968,10.968,0,0,1-1.159-2.791H61.763a.779.779,0,0,1-.558-.234l-.951-.951a.779.779,0,0,1-.229-.554v-2.1a.784.784,0,0,1,.234-.558l.951-.951a.782.782,0,0,1,.554-.229H63.3a10.932,10.932,0,0,1,1.159-2.792l-1.082-1.085a.784.784,0,0,1-.229-.554V61.292a.779.779,0,0,1,.234-.558l1.483-1.483a.779.779,0,0,1,.554-.229h1.348a.784.784,0,0,1,.558.234L68.4,60.337a10.938,10.938,0,0,1,2.791-1.158V57.641a.784.784,0,0,1,.234-.558l.951-.951A.98.98,0,0,1,73.2,55.9V37.642Zm-6.643,6.83h1.8a2.609,2.609,0,0,1,2.6,2.6v5.464a2.531,2.531,0,0,1-2.052,2.522l-.179,2.232a.781.781,0,0,1-1.3.517l-2.952-2.668H57.928a2.61,2.61,0,0,1-2.493-1.853l-.98.885a.781.781,0,0,1-1.3-.517l-.179-2.232a2.528,2.528,0,0,1-2.05-2.523V43.438a2.608,2.608,0,0,1,2.6-2.6H63.956a2.609,2.609,0,0,1,2.6,2.6ZM50.492,37.649a.781.781,0,0,1,1.016,1.186l-2.083,1.789a.778.778,0,0,1-1.175-.189l-1.554-2.2a.779.779,0,1,1,1.272-.9l.482.681a5.9,5.9,0,0,0-10.07-4.194.783.783,0,0,1-1.1-1.1,7.464,7.464,0,0,1,12.746,5.339Zm-15.885.7a.783.783,0,1,1-1.016-1.191l2.083-1.789a.781.781,0,0,1,1.177.2l1.554,2.194a.779.779,0,0,1-1.272.9l-.478-.681a5.893,5.893,0,0,0,10.068,4.191.783.783,0,0,1,1.1,1.1,7.464,7.464,0,0,1-12.746-5.337l-.479.412Zm18.5,30.428a.783.783,0,1,1-.129-1.56l1.887-.156L37.685,53.837A.781.781,0,0,1,38.64,52.6L55.824,65.824l-.333-1.868a.782.782,0,1,1,1.541-.27l.684,3.834a.782.782,0,0,1-.7.933ZM52.165,72h4.78a.783.783,0,0,1,.783.783v8.183a.783.783,0,0,1-.783.782h-4.78a.783.783,0,0,1-.783-.782V72.781A.783.783,0,0,1,52.165,72Zm-8.514-7.679h4.78a.783.783,0,0,1,.782.783V80.964a.782.782,0,0,1-.782.782h-4.78a.783.783,0,0,1-.783-.782V65.1a.783.783,0,0,1,.783-.783ZM35.136,59.4h4.786a.783.783,0,0,1,.783.783V80.964a.783.783,0,0,1-.783.782H35.136a.783.783,0,0,1-.783-.782V60.185a.783.783,0,0,1,.783-.783Z" transform="translate(-29.734 -27.231)" fill="#f2f2f2" fill-rule="evenodd"/>
      </g>
      <path id="Trazado_1052751" data-name="Trazado 1052751" d="M68.99,291.28h3.221v19.212H68.99Z" transform="translate(-44.285 -241.543)" fill="#0a5f80"/>
      <path id="Trazado_1052752" data-name="Trazado 1052752" d="M138.46,331.39h3.221v14.3H138.46Z" transform="translate(-105.241 -276.737)" fill="#f7ba2d"/>
      <path id="Trazado_1052753" data-name="Trazado 1052753" d="M207.94,394.05h3.221v6.617H207.94Z" transform="translate(-166.205 -331.718)" fill="#ef6262"/>
      <path id="Trazado_1052754" data-name="Trazado 1052754" d="M207.717,143.54a.783.783,0,1,1-.783-.783A.783.783,0,0,1,207.717,143.54Zm3.517,0a.783.783,0,1,1-.782-.783A.783.783,0,0,1,211.235,143.54Zm3.517,0a.783.783,0,1,1-.782-.783A.783.783,0,0,1,214.752,143.54Zm-7.513,4.93,1-.907a.778.778,0,0,1,.577-.255h6.846a1.043,1.043,0,0,0,1.038-1.038v-5.462a1.043,1.043,0,0,0-1.038-1.038H205.238a1.043,1.043,0,0,0-1.038,1.038v5.462c0,.708.551,1.038,1.213,1.038a.782.782,0,0,1,.779.721l.1,1.293Z" transform="translate(-162.924 -108.601)" fill="#f7ba2d" fill-rule="evenodd"/>
      <path id="Trazado_1052755" data-name="Trazado 1052755" d="M240.066,175.375c0,.515-.067.925.305,1.3a1.036,1.036,0,0,0,.735.306h6.846a.775.775,0,0,1,.577.254l1.941,1.76.1-1.293a.782.782,0,0,1,.779-.721c.662,0,1.213-.331,1.213-1.038v-5.464a1.043,1.043,0,0,0-1.038-1.038h-1.794V172.3a2.61,2.61,0,0,1-2.6,2.6h-6.548Z" transform="translate(-194.39 -134.635)" fill="#f8c348" fill-rule="evenodd"/>
    </g>
  </g>
</svg>
