<svg xmlns="http://www.w3.org/2000/svg" xmlns:xlink="http://www.w3.org/1999/xlink" width="113" height="113" viewBox="0 0 113 113">
  <defs>
    <filter id="Trazado_982547" x="0" y="0" width="113" height="113" filterUnits="userSpaceOnUse">
      <feOffset dy="3" input="SourceAlpha"/>
      <feGaussianBlur stdDeviation="3" result="blur"/>
      <feFlood flood-opacity="0.161"/>
      <feComposite operator="in" in2="blur"/>
      <feComposite in="SourceGraphic"/>
    </filter>
  </defs>
  <g id="Grupo_1225515" data-name="Grupo 1225515" transform="translate(-900.509 -1295.342)">
    <g id="Grupo_1225177" data-name="Grupo 1225177" transform="translate(0 -3445.654)">
      <g id="Grupo_1224648" data-name="Grupo 1224648" transform="translate(0 1927)">
        <g id="Grupo_1224293" data-name="Grupo 1224293" transform="translate(0 859.245)">
          <g id="Grupo_1224093" data-name="Grupo 1224093" transform="translate(226.51 -2620.317)">
            <g id="Grupo_1223184" data-name="Grupo 1223184" transform="translate(683 4581.069)">
              <g id="Grupo_1211216" data-name="Grupo 1211216" transform="translate(0)">
                <g id="Grupo_1210737" data-name="Grupo 1210737">
                  <g id="Grupo_1210537" data-name="Grupo 1210537">
                    <g id="Grupo_1164202" data-name="Grupo 1164202">
                      <g id="Grupo_1158168" data-name="Grupo 1158168">
                        <g id="Grupo_1152576" data-name="Grupo 1152576">
                          <g id="Grupo_1148633" data-name="Grupo 1148633">
                            <g id="Grupo_1148525" data-name="Grupo 1148525">
                              <g transform="matrix(1, 0, 0, 1, -9, -6)" filter="url(#Trazado_982547)">
                                <g id="Trazado_982547-2" data-name="Trazado 982547" transform="translate(9 6)" fill="#fdfbec">
                                  <path d="M 47.49999618530273 93.5 C 41.28936767578125 93.5 35.26533126831055 92.28396606445312 29.59518241882324 89.88570404052734 C 24.11771583557129 87.56893157958984 19.19812965393066 84.251953125 14.97308921813965 80.02690124511719 C 10.74803638458252 75.80186462402344 7.431062698364258 70.88227844238281 5.114289283752441 65.40480804443359 C 2.716022968292236 59.73466110229492 1.499996185302734 53.71062469482422 1.499996185302734 47.49999618530273 C 1.499996185302734 41.28936767578125 2.716022968292236 35.26533126831055 5.114289283752441 29.59518241882324 C 7.431062698364258 24.11771583557129 10.74803638458252 19.19812965393066 14.97308921813965 14.97308921813965 C 19.19812965393066 10.74803638458252 24.11771583557129 7.431062698364258 29.59518241882324 5.114289283752441 C 35.26533126831055 2.716022968292236 41.28936767578125 1.499996185302734 47.49999618530273 1.499996185302734 C 53.71062469482422 1.499996185302734 59.73466110229492 2.716022968292236 65.40480804443359 5.114289283752441 C 70.88227844238281 7.431062698364258 75.80186462402344 10.74803638458252 80.02690124511719 14.97308921813965 C 84.251953125 19.19812965393066 87.56893157958984 24.11771583557129 89.88570404052734 29.59518241882324 C 92.28396606445312 35.26533126831055 93.5 41.28936767578125 93.5 47.49999618530273 C 93.5 53.71062469482422 92.28396606445312 59.73466110229492 89.88570404052734 65.40480804443359 C 87.56893157958984 70.88227844238281 84.251953125 75.80186462402344 80.02690124511719 80.02690124511719 C 75.80186462402344 84.251953125 70.88227844238281 87.56893157958984 65.40480804443359 89.88570404052734 C 59.73466110229492 92.28396606445312 53.71062469482422 93.5 47.49999618530273 93.5 Z" stroke="none"/>
                                  <path d="M 47.49999618530273 2.999992370605469 C 41.4912109375 2.999992370605469 35.66376495361328 4.1761474609375 30.17950439453125 6.495796203613281 C 24.88084411621094 8.736953735351562 20.12152099609375 11.94598388671875 16.03375244140625 16.03375244140625 C 11.94598388671875 20.12152099609375 8.736953735351562 24.88084411621094 6.495796203613281 30.17950439453125 C 4.1761474609375 35.66376495361328 2.999992370605469 41.4912109375 2.999992370605469 47.49999618530273 C 2.999992370605469 53.50878143310547 4.1761474609375 59.33622741699219 6.495796203613281 64.82048797607422 C 8.736953735351562 70.11914825439453 11.94598388671875 74.87847137451172 16.03375244140625 78.96623992919922 C 20.12152099609375 83.05400848388672 24.88084411621094 86.26304626464844 30.17950439453125 88.50419616699219 C 35.66376495361328 90.82384490966797 41.4912109375 92 47.49999618530273 92 C 53.50878143310547 92 59.33622741699219 90.82384490966797 64.82048797607422 88.50419616699219 C 70.11914825439453 86.26304626464844 74.87847137451172 83.05400848388672 78.96623992919922 78.96623992919922 C 83.05400848388672 74.87847137451172 86.26304626464844 70.11914825439453 88.50419616699219 64.82048797607422 C 90.82384490966797 59.33622741699219 92 53.50878143310547 92 47.49999618530273 C 92 41.4912109375 90.82384490966797 35.66376495361328 88.50419616699219 30.17950439453125 C 86.26304626464844 24.88084411621094 83.05400848388672 20.12152099609375 78.96623992919922 16.03375244140625 C 74.87847137451172 11.94598388671875 70.11914825439453 8.736953735351562 64.82048797607422 6.495796203613281 C 59.33622741699219 4.1761474609375 53.50878143310547 2.999992370605469 47.49999618530273 2.999992370605469 M 47.49999618530273 -7.62939453125e-06 C 73.7335205078125 -7.62939453125e-06 95 21.26647186279297 95 47.49999618530273 C 95 73.7335205078125 73.7335205078125 95 47.49999618530273 95 C 21.26647186279297 95 -7.62939453125e-06 73.7335205078125 -7.62939453125e-06 47.49999618530273 C -7.62939453125e-06 21.26647186279297 21.26647186279297 -7.62939453125e-06 47.49999618530273 -7.62939453125e-06 Z" stroke="none" fill="#83793c"/>
                                </g>
                              </g>
                            </g>
                          </g>
                        </g>
                      </g>
                    </g>
                  </g>
                </g>
              </g>
            </g>
          </g>
        </g>
      </g>
    </g>
    <g id="data-sharing_4199991" transform="translate(928.021 1321.021)">
      <g id="Grupo_1225513" data-name="Grupo 1225513" transform="translate(0.935 0.935)">
        <g id="Grupo_1225493" data-name="Grupo 1225493" transform="translate(3.739 18.696)">
          <path id="Trazado_1052756" data-name="Trazado 1052756" d="M16.218,26.609v1.87H5v-1.87A5.617,5.617,0,0,1,10.609,21,5.613,5.613,0,0,1,16.218,26.609Z" transform="translate(-5 -21)" fill="#ff826e"/>
        </g>
        <g id="Grupo_1225494" data-name="Grupo 1225494" transform="translate(22.436 18.696)">
          <path id="Trazado_1052757" data-name="Trazado 1052757" d="M36.218,26.609v1.87H25v-1.87A5.613,5.613,0,0,1,30.609,21a5.617,5.617,0,0,1,5.609,5.609Z" transform="translate(-25 -21)" fill="#fcd770"/>
        </g>
        <g id="Grupo_1225495" data-name="Grupo 1225495" transform="translate(14.957 2.804)">
          <path id="Trazado_1052758" data-name="Trazado 1052758" d="M20.739,5.72a18.292,18.292,0,0,1-.879,5.59,2.77,2.77,0,0,0-1.926-.767H17V8.581A4.674,4.674,0,0,0,20.739,4Z" transform="translate(-17 -4)" fill="#656d78"/>
        </g>
        <g id="Grupo_1225496" data-name="Grupo 1225496" transform="translate(0)">
          <path id="Trazado_1052759" data-name="Trazado 1052759" d="M19.7,2.87V3.8a4.674,4.674,0,0,1-3.739,4.581,4.405,4.405,0,0,1-.935.093H10.348a1.883,1.883,0,0,1-1.87-1.87l-.907.224a3.758,3.758,0,0,0-2.832,3.515H3.8a2.812,2.812,0,0,0-1.926.767L1.327,9.469A6.548,6.548,0,0,1,1,7.432,6.431,6.431,0,0,1,7.432,1h10.4A1.875,1.875,0,0,1,19.7,2.87Z" transform="translate(-1 -1)" fill="#656d78"/>
        </g>
        <g id="Grupo_1225497" data-name="Grupo 1225497" transform="translate(18.696 0)">
          <path id="Trazado_1052760" data-name="Trazado 1052760" d="M21.841,11.152A6.924,6.924,0,0,1,21,7.852,6.85,6.85,0,0,1,27.852,1h4.992A6.862,6.862,0,0,1,39.7,7.852a6.924,6.924,0,0,1-.841,3.3,2.793,2.793,0,0,0-1.963-.8h-.935a3.758,3.758,0,0,0-2.832-3.515l-.907-.224a1.883,1.883,0,0,1-1.87,1.87H26.609a1.875,1.875,0,0,0-1.87,1.87H23.8A2.793,2.793,0,0,0,21.841,11.152Z" transform="translate(-21 -1)" fill="#b27946"/>
        </g>
        <g id="Grupo_1225498" data-name="Grupo 1225498" transform="translate(7.479 50.48)">
          <path id="Trazado_1052761" data-name="Trazado 1052761" d="M12.739,55H48.262a1.875,1.875,0,0,1,1.87,1.87,3.734,3.734,0,0,1-3.739,3.739H12.739A3.738,3.738,0,0,1,9,56.87,1.883,1.883,0,0,1,10.87,55Z" transform="translate(-9 -55)" fill="#969faa"/>
        </g>
        <g id="Grupo_1225499" data-name="Grupo 1225499" transform="translate(11.218 26.175)">
          <path id="Trazado_1052762" data-name="Trazado 1052762" d="M46.653,49.566v3.739H13V32.739A3.738,3.738,0,0,1,16.739,29H42.914a3.738,3.738,0,0,1,3.739,3.739Zm-3.739-.935V33.674a.938.938,0,0,0-.935-.935H17.674a.938.938,0,0,0-.935.935V48.631a.938.938,0,0,0,.935.935H41.979A.938.938,0,0,0,42.914,48.631Z" transform="translate(-13 -29)" fill="#ccd1d9"/>
        </g>
        <g id="Grupo_1225500" data-name="Grupo 1225500" transform="translate(14.957 29.914)">
          <path id="Trazado_1052763" data-name="Trazado 1052763" d="M42.24,49.827H17.935A.935.935,0,0,1,17,48.892V33.935A.935.935,0,0,1,17.935,33H42.24a.935.935,0,0,1,.935.935V48.892A.935.935,0,0,1,42.24,49.827Z" transform="translate(-17 -33)" fill="#69d6f4"/>
        </g>
        <g id="Grupo_1225501" data-name="Grupo 1225501" transform="translate(48.61 29.914)">
          <path id="Trazado_1052764" data-name="Trazado 1052764" d="M56.739,33h3.739V44.218H53V33Z" transform="translate(-53 -33)" fill="#e6e9ed"/>
        </g>
        <g id="Grupo_1225502" data-name="Grupo 1225502" transform="translate(0 29.914)">
          <path id="Trazado_1052765" data-name="Trazado 1052765" d="M4.739,33H8.479V44.218H1V33Z" transform="translate(-1 -33)" fill="#e6e9ed"/>
        </g>
        <g id="Grupo_1225503" data-name="Grupo 1225503" transform="translate(18.696 35.523)">
          <path id="Trazado_1052766" data-name="Trazado 1052766" d="M39.7,50.218H34.658v-.047a4.734,4.734,0,0,0,.365-1.823,4.674,4.674,0,0,0-9.348,0,4.619,4.619,0,0,0,.393,1.87H21V46.479l1.262-.421a8.327,8.327,0,0,1,.748-1.814l-.6-1.187,2.646-2.646,1.187.6a8.327,8.327,0,0,1,1.814-.748L28.479,39h3.739l.421,1.262a8.327,8.327,0,0,1,1.814.748l1.187-.6,2.646,2.646-.6,1.187a8.327,8.327,0,0,1,.748,1.814l1.262.421Z" transform="translate(-21 -39)" fill="#fcd770"/>
        </g>
        <g id="Grupo_1225504" data-name="Grupo 1225504" transform="translate(37.393 0)">
          <path id="Trazado_1052767" data-name="Trazado 1052767" d="M59.7,10.348v7.479a5.6,5.6,0,0,1-4.132,5.413,5.422,5.422,0,0,0-1.253-1.9A5.557,5.557,0,0,0,50.348,19.7h.935a4.676,4.676,0,0,0,4.674-4.674V8.479A6.764,6.764,0,0,1,51.171,6.5l-.823-.823-.823.823a6.764,6.764,0,0,1-4.786,1.982v6.544A4.676,4.676,0,0,0,49.413,19.7h.935a5.614,5.614,0,0,0-5.216,3.543A5.6,5.6,0,0,1,41,17.827V10.348a9.348,9.348,0,0,1,18.7,0Z" transform="translate(-41 -1)" fill="#656d78"/>
        </g>
        <g id="Grupo_1225505" data-name="Grupo 1225505" transform="translate(41.132 18.696)">
          <path id="Trazado_1052768" data-name="Trazado 1052768" d="M56.218,26.609v1.87H45v-1.87a5.605,5.605,0,0,1,9.572-3.964,5.422,5.422,0,0,1,1.253,1.9,5.6,5.6,0,0,1,.393,2.066Z" transform="translate(-45 -21)" fill="#ff826e"/>
        </g>
        <g id="Grupo_1225506" data-name="Grupo 1225506" transform="translate(41.132 4.674)">
          <path id="Trazado_1052769" data-name="Trazado 1052769" d="M56.218,8.8v6.544a4.676,4.676,0,0,1-4.674,4.674h-1.87A4.676,4.676,0,0,1,45,15.348V8.8a6.764,6.764,0,0,0,4.786-1.982L50.609,6l.823.823A6.764,6.764,0,0,0,56.218,8.8Z" transform="translate(-45 -6)" fill="#f0d0b4"/>
        </g>
        <g id="Grupo_1225507" data-name="Grupo 1225507" transform="translate(33.56 9.348)">
          <path id="Trazado_1052770" data-name="Trazado 1052770" d="M39.891,11.8a2.765,2.765,0,0,1,.841,2,2.809,2.809,0,0,1-2.8,2.8H36.9a4.405,4.405,0,0,0,.093-.935V11h.935a2.793,2.793,0,0,1,1.963.8Z" transform="translate(-36.9 -11)" fill="#f0d0b4"/>
        </g>
        <g id="Grupo_1225508" data-name="Grupo 1225508" transform="translate(22.436 5.609)">
          <path id="Trazado_1052771" data-name="Trazado 1052771" d="M36.124,16.348a4.674,4.674,0,0,1-4.581,3.739h-1.87a4.674,4.674,0,0,1-4.581-3.739A4.405,4.405,0,0,1,25,15.413V10.739a1.875,1.875,0,0,1,1.87-1.87h3.739A1.883,1.883,0,0,0,32.479,7l.907.224a3.758,3.758,0,0,1,2.832,3.515v4.674A4.405,4.405,0,0,1,36.124,16.348Z" transform="translate(-25 -7)" fill="#f0d0b4"/>
        </g>
        <g id="Grupo_1225509" data-name="Grupo 1225509" transform="translate(18.696 9.348)">
          <path id="Trazado_1052772" data-name="Trazado 1052772" d="M24.833,16.609H23.8A2.809,2.809,0,0,1,21,13.8a2.765,2.765,0,0,1,.841-2A2.793,2.793,0,0,1,23.8,11h.935v4.674a4.405,4.405,0,0,0,.093.935Z" transform="translate(-21 -11)" fill="#f0d0b4"/>
        </g>
        <g id="Grupo_1225510" data-name="Grupo 1225510" transform="translate(14.864 9.348)">
          <path id="Trazado_1052773" data-name="Trazado 1052773" d="M19.854,11.767a2.805,2.805,0,0,1-1.926,4.842H16.9a4.405,4.405,0,0,0,.093-.935V11h.935a2.77,2.77,0,0,1,1.926.767Z" transform="translate(-16.9 -11)" fill="#f0d0b4"/>
        </g>
        <g id="Grupo_1225511" data-name="Grupo 1225511" transform="translate(3.739 5.609)">
          <path id="Trazado_1052774" data-name="Trazado 1052774" d="M16.218,10.739v4.674a4.405,4.405,0,0,1-.093.935,4.674,4.674,0,0,1-4.581,3.739H9.674a4.674,4.674,0,0,1-4.581-3.739A4.405,4.405,0,0,1,5,15.413V10.739A3.758,3.758,0,0,1,7.832,7.224L8.739,7a1.883,1.883,0,0,0,1.87,1.87h4.674a4.4,4.4,0,0,0,.935-.093Z" transform="translate(-5 -7)" fill="#f0d0b4"/>
        </g>
        <g id="Grupo_1225512" data-name="Grupo 1225512" transform="translate(0 9.348)">
          <path id="Trazado_1052775" data-name="Trazado 1052775" d="M4.833,16.609H3.8A2.8,2.8,0,0,1,3.8,11h.935v4.674A4.405,4.405,0,0,0,4.833,16.609Z" transform="translate(-1 -11)" fill="#f0d0b4"/>
        </g>
      </g>
      <g id="Grupo_1225514" data-name="Grupo 1225514" transform="translate(0)">
        <path id="Trazado_1052776" data-name="Trazado 1052776" d="M42.175,32H17.87A1.872,1.872,0,0,0,16,33.87V48.827a1.872,1.872,0,0,0,1.87,1.87H42.175a1.872,1.872,0,0,0,1.87-1.87V33.87A1.872,1.872,0,0,0,42.175,32ZM23.227,42.788,24.918,41.1l1.025.511.433-.242a7.458,7.458,0,0,1,1.613-.666l.476-.135.363-1.087h2.392l.364,1.088.476.135a7.5,7.5,0,0,1,1.613.666l.433.242,1.025-.511,1.691,1.691-.511,1.025.242.433a7.477,7.477,0,0,1,.666,1.613l.135.477,1.085.361v2.13H35.548a5.609,5.609,0,1,0-11.05,0H21.609V46.7l1.088-.363.135-.477a7.516,7.516,0,0,1,.666-1.613l.242-.433Zm3.056,5.1a3.74,3.74,0,1,1,7.346.935H26.415a3.736,3.736,0,0,1-.132-.935Zm14.022.935V45.348l-1.443-.481a9.429,9.429,0,0,0-.449-1.09l.68-1.358-3.6-3.6-1.358.68a9.2,9.2,0,0,0-1.09-.449l-.481-1.443H27.48L27,39.052a9.527,9.527,0,0,0-1.09.449l-1.358-.68-3.6,3.6.68,1.358a9.109,9.109,0,0,0-.449,1.09l-1.444.481v3.478H17.87V33.87H42.175l0,14.957Z" transform="translate(-1.043 -2.086)"/>
        <path id="Trazado_1052777" data-name="Trazado 1052777" d="M56,40h1.87v1.87H56Z" transform="translate(-3.65 -2.607)"/>
        <path id="Trazado_1052778" data-name="Trazado 1052778" d="M56,36h1.87v1.87H56Z" transform="translate(-3.65 -2.347)"/>
        <path id="Trazado_1052779" data-name="Trazado 1052779" d="M4,40H5.87v1.87H4Z" transform="translate(-0.261 -2.607)"/>
        <path id="Trazado_1052780" data-name="Trazado 1052780" d="M4,36H5.87v1.87H4Z" transform="translate(-0.261 -2.347)"/>
        <path id="Trazado_1052781" data-name="Trazado 1052781" d="M57.958,17.761V10.283A10.274,10.274,0,0,0,38.787,5.137,7.8,7.8,0,0,0,31.472,0H26.486A7.769,7.769,0,0,0,20.56,2.746,2.8,2.8,0,0,0,17.761,0H7.369A7.37,7.37,0,0,0,.378,9.7L.761,10.85A3.7,3.7,0,0,0,0,13.087a3.743,3.743,0,0,0,3.739,3.739h.327A5.631,5.631,0,0,0,6.6,19.839a6.541,6.541,0,0,0-2.857,5.4v4.674H0V43H3.739V48.61h7.479v1.87h-.935a2.808,2.808,0,0,0-2.8,2.8,4.679,4.679,0,0,0,4.674,4.674H45.806a4.679,4.679,0,0,0,4.674-4.674,2.808,2.808,0,0,0-2.8-2.8h-.935V48.61h7.479V43h3.739V29.914H54.219V25.24a6.5,6.5,0,0,0-.179-1.493A6.555,6.555,0,0,0,57.958,17.761ZM46.741,18.7A3.743,3.743,0,0,1,43,14.957V9.292a7.647,7.647,0,0,0,4.513-2.2l.161-.161.161.161a7.641,7.641,0,0,0,4.513,2.2v5.665A3.743,3.743,0,0,1,48.61,18.7Zm.935,1.87A4.679,4.679,0,0,1,52.35,25.24v.935H43V25.24A4.679,4.679,0,0,1,47.676,20.566ZM41.132,25.24v.935H35.523V25.24a6.541,6.541,0,0,0-2.857-5.4,5.635,5.635,0,0,0,2.53-3.012h.327a3.7,3.7,0,0,0,1.87-.52v1.455a6.555,6.555,0,0,0,3.918,5.986A6.5,6.5,0,0,0,41.132,25.24Zm-27.162-5.4a5.635,5.635,0,0,0,2.53-3.012h.327a3.714,3.714,0,0,0,2.8-1.292,3.714,3.714,0,0,0,2.8,1.292h.327a5.631,5.631,0,0,0,2.53,3.012,6.541,6.541,0,0,0-2.857,5.4v.935H16.827V25.24A6.541,6.541,0,0,0,13.97,19.839ZM18.493,8.088c-.079.512-.184,1.02-.309,1.525a3.706,3.706,0,0,0-1.357-.265V9.021A5.614,5.614,0,0,0,18.493,8.088Zm3.942,6.869a1.87,1.87,0,0,1,0-3.739Zm-5.609-3.739a1.87,1.87,0,0,1,0,3.739ZM29.914,18.7h-1.87a3.743,3.743,0,0,1-3.739-3.739V10.283a.935.935,0,0,1,.935-.935h3.739A2.806,2.806,0,0,0,31.543,7.68,2.8,2.8,0,0,1,33.653,10.4v4.559A3.743,3.743,0,0,1,29.914,18.7ZM24.305,25.24a4.674,4.674,0,0,1,9.348,0v.935H24.305ZM35.523,11.218a1.87,1.87,0,0,1,0,3.739ZM26.486,1.87h4.986a5.891,5.891,0,0,1,5.595,7.822,3.7,3.7,0,0,0-1.544-.343h-.134a4.658,4.658,0,0,0-3.407-3.485l-.3-.076a2.812,2.812,0,0,0-2.7-2.048h-.935v1.87h.935a.935.935,0,0,1,0,1.87H25.24a2.8,2.8,0,0,0-2.632,1.87h-.172a3.7,3.7,0,0,0-1.544.343A5.891,5.891,0,0,1,26.486,1.87ZM1.87,13.087a1.872,1.872,0,0,1,1.87-1.87v3.739A1.872,1.872,0,0,1,1.87,13.087Zm2-3.739H3.739a3.723,3.723,0,0,0-1.413.281l-.174-.522A5.5,5.5,0,0,1,7.369,1.87H17.761A.935.935,0,0,1,18.7,2.8v.935a3.743,3.743,0,0,1-3.739,3.739H10.283a.935.935,0,0,1,0-1.87h.935V3.739h-.935A2.8,2.8,0,0,0,7.6,5.785l-.316.079A4.658,4.658,0,0,0,3.873,9.348ZM9.348,18.7a3.743,3.743,0,0,1-3.739-3.739V10.4A2.8,2.8,0,0,1,7.724,7.68a2.8,2.8,0,0,0,2.559,1.669h4.674v5.609A3.743,3.743,0,0,1,11.218,18.7ZM5.609,25.24a4.674,4.674,0,0,1,9.348,0v.935H5.609ZM1.87,31.784H7.479v9.348H1.87ZM5.609,46.741V43H9.348V29.914H5.609v-1.87h6.568a4.626,4.626,0,0,0-.959,2.8V46.741Zm43,6.544a2.808,2.808,0,0,1-2.8,2.8H12.153a2.808,2.808,0,0,1-2.8-2.8.935.935,0,0,1,.935-.935H47.676A.935.935,0,0,1,48.61,53.284Zm-35.523-2.8V30.849a2.808,2.808,0,0,1,2.8-2.8H42.067a2.808,2.808,0,0,1,2.8,2.8V50.48Zm43-9.348H50.48V31.784h5.609ZM52.35,29.914H48.61V43H52.35v3.739H46.741V30.849a4.626,4.626,0,0,0-.959-2.8H52.35Zm1.011-7.9a6.6,6.6,0,0,0-2-2.173,5.609,5.609,0,0,0,2.857-4.882V7.479h-.935A5.8,5.8,0,0,1,49.158,5.77L47.676,4.287,46.193,5.77a5.8,5.8,0,0,1-4.126,1.709h-.935v7.479a5.608,5.608,0,0,0,2.857,4.882,6.6,6.6,0,0,0-2,2.173,4.686,4.686,0,0,1-2.729-4.251V10.283a8.413,8.413,0,0,1,16.827,0v7.479A4.686,4.686,0,0,1,53.36,22.012Z" transform="translate(0)"/>
        <path id="Trazado_1052782" data-name="Trazado 1052782" d="M13.609,15h-1.87a.935.935,0,0,1-1.87,0H8a2.8,2.8,0,0,0,5.609,0Z" transform="translate(-0.521 -0.978)"/>
        <path id="Trazado_1052783" data-name="Trazado 1052783" d="M30.8,15.935A.935.935,0,0,1,29.87,15H28a2.8,2.8,0,0,0,5.609,0h-1.87A.935.935,0,0,1,30.8,15.935Z" transform="translate(-1.825 -0.978)"/>
        <path id="Trazado_1052784" data-name="Trazado 1052784" d="M53.609,15h-1.87a.935.935,0,0,1-1.87,0H48a2.8,2.8,0,0,0,5.609,0Z" transform="translate(-3.129 -0.978)"/>
      </g>
    </g>
  </g>
</svg>
